<svg width="136" height="136" viewBox="0 0 136 136" fill="none" xmlns="http://www.w3.org/2000/svg">
<g filter="url(#filter0_d)">
<path d="M20 96H28V88H36V96H28V104V112H36V96H44V104H36H20V96Z" fill="#483737"/>
<path d="M20 104H28H36V88H44V96H36H28V112H20V104Z" fill="#7B7575"/>
<path d="M4 104H20V112H12V120H20V112H28V128H12H4V112V104Z" fill="#121214"/>
<path d="M44 88H52V104H68H76V88H68H52V64H36V56H28V64V80H36V88H44V80H36V64H20V48H36V56H44V64V80H52H76V64H84H92V56V48H100L108 48V32H116H124V8H100V24L92 24H84V40H76H68V56L60 56L52 56V64H60V48H68H76V32H84H92V16H100H108V8V0H132V24H124H116V40H108H100V56H92H84V72H76H68V80V96H76H84V112H68V96H52H44V88Z" fill="#121214"/>
<path d="M28 56H36V72H44V64H36H28V56Z" fill="#53329D"/>
<path d="M60 88H68V104H76V96H68H60V88Z" fill="#53329D"/>
<path d="M52 72H60H68V56H76H84V40H92H100V24H108H116V8H124V16H116H108V32H100H92V48H84H76V64H60V80H52V72Z" fill="#53329D"/>
<path d="M44 80H52V96H60V88H52H44V72H36V80H44Z" fill="#8257E6"/>
<path d="M52 64H60H76V72H68H60V80H68V64V48H76H84V32H92H100V16H108H116H124V24H108V40H100H92V56H84H76V72V64H84V48H92H100V32H108H116V24V8H108V24H100H92V40H84H76V56H68H60V72H52V64Z" fill="#8257E6"/>
<rect x="12" y="112" width="8" height="8" fill="#8257E6"/>
</g>
<defs>
<filter id="filter0_d" x="0" y="0" width="136" height="136" filterUnits="userSpaceOnUse" color-interpolation-filters="sRGB">
<feFlood flood-opacity="0" result="BackgroundImageFix"/>
<feColorMatrix in="SourceAlpha" type="matrix" values="0 0 0 0 0 0 0 0 0 0 0 0 0 0 0 0 0 0 127 0"/>
<feOffset dy="4"/>
<feGaussianBlur stdDeviation="2"/>
<feColorMatrix type="matrix" values="0 0 0 0 0 0 0 0 0 0 0 0 0 0 0 0 0 0 0.5 0"/>
<feBlend mode="normal" in2="BackgroundImageFix" result="effect1_dropShadow"/>
<feBlend mode="normal" in="SourceGraphic" in2="effect1_dropShadow" result="shape"/>
</filter>
</defs>
</svg>
